<?xml version="1.0" encoding="utf-8"?>
<!-- Uploaded to: SVG Repo, www.svgrepo.com, Generator: SVG Repo Mixer Tools -->
<svg width="800px" height="800px" viewBox="0 0 1024 1024" class="icon"  version="1.1" xmlns="http://www.w3.org/2000/svg"><path d="M885.716096 901.821812c0.016382 22.305342-18.053146 40.399443-40.357464 40.414801l-661.329579 0.469964c-22.305342 0.016382-40.399443-18.053146-40.414802-40.357464l-0.452557-782.294463c-0.015358-22.305342 18.053146-40.399443 40.357464-40.414802l661.329579-0.469963c22.304318-0.015358 40.399443 18.053146 40.414801 40.357464l0.452558 782.294463z" fill="#DCE5F7" /><path d="M184.045435 955.708897h-0.037884c-29.423393 0-53.386405-23.937415-53.398691-53.348521l-0.456653-782.294463c-0.012287-14.260675 5.537172-27.671525 15.619371-37.767034 10.083223-10.083223 23.480762-15.644968 37.741437-15.658279l661.324459-0.469963c29.474587 0 53.412002 23.937415 53.424289 53.348521l0.457676 782.294463c0.012287 14.260675-5.537172 27.671525-15.61937 37.767034-10.069912 10.083223-23.480762 15.644968-37.729151 15.658278l-661.325483 0.469964zM844.900955 92.179372l-661.362343 0.469963c-7.326923 0-14.197194 2.857664-19.365767 8.038524-5.168573 5.168573-8.012927 12.05113-8.012927 19.35348l0.457677 782.294463c0.012287 15.085926 12.292767 27.366407 27.392004 27.366407l661.336746-0.469963c7.314637 0 14.184907-2.857664 19.353481-8.026237 5.168573-5.18086 8.012927-12.064441 8.012926-19.365767l-0.456653-782.294463c-0.014334-15.08695-12.281504-27.366407-27.355144-27.366407z" fill="#4E6DC4" /><path d="M677.453725 614.125394c-8.312925-19.988289-20.277025-37.965668-35.559537-53.433503-15.282512-15.467836-33.114499-27.646952-53.0004-36.199466-20.591358-8.855584-42.491241-13.414946-65.091462-13.550099-22.601245-0.136177-44.55437 4.159022-65.251188 12.766827-19.988289 8.312925-37.965668 20.277025-53.432479 35.559537-15.466812 15.282512-27.645928 33.115523-36.199466 53.001424-8.855584 20.591358-13.413922 42.491241-13.550098 65.092485-0.136177 22.600221 4.159022 44.553346 12.766826 65.24914 8.312925 19.988289 20.277025 37.965668 35.559537 53.43248 15.282512 15.466812 33.114499 27.646952 53.001424 36.199466 20.591358 8.855584 42.491241 13.414946 65.092486 13.550098 22.600221 0.136177 44.553346-4.159022 65.24914-12.766826 19.988289-8.312925 37.965668-20.277025 53.432479-35.559537 15.467836-15.282512 27.646952-33.114499 36.199466-53.0004 8.855584-20.591358 13.414946-42.491241 13.550098-65.091462 0.136177-22.600221-4.159022-44.55437-12.766826-65.250164z" fill="#4E6DC4" /><path d="M662.612507 679.209689c-0.46382 77.096517-63.562801 139.441919-140.658294 138.978098-77.096517-0.46382-139.441919-63.562801-138.978098-140.659318 0.46382-77.096517 63.562801-139.441919 140.659318-138.978099 77.095493 0.462796 139.440895 63.562801 138.977074 140.659319z" fill="#FFFFFF" /><path d="M488.812069 677.962596l1.429344-3.998272 12.848737-35.874894c3.020462-8.43272 11.07332-14.061017 20.035388-14.007775a21.184187 21.184187 0 0 1 19.871566 14.257603l12.401299 36.004927 1.389413 4.025918 6.718735 0.176108 8.136817 0.207849 0.647095-107.569393a8.160366 8.160366 0 0 0-2.347769-5.764474 8.131697 8.131697 0 0 0-5.733757-2.407154l-81.4296-0.489418c-4.489737-0.026621-8.153199 3.584623-8.180844 8.073336l-0.647096 107.57144 8.132722-0.108532 6.72795-0.097269z" fill="#4E6DC4" /><path d="M599.2166 695.758747l-27.671525-0.727982-8.136817-0.206825-8.134769-0.224231-6.946038-0.175085-3.251859-0.08703-1.690435-4.910554-15.775001-45.793271a4.892124 4.892124 0 0 0-4.584959-3.285648 4.904411 4.904411 0 0 0-4.630009 3.230358l-16.316637 45.600781-1.754939 4.890076-3.259027 0.048123-6.947062 0.09215-8.130674 0.126961-8.133745 0.108532-27.684835 0.39522a4.883933 4.883933 0 0 0-4.570624 3.353224 4.870622 4.870622 0 0 0 1.687363 5.409186l42.920249 32.611772-15.97773 51.134881a4.889052 4.889052 0 0 0 1.755963 5.376422c0.420817 0.313309 0.880541 0.543683 1.364839 0.702385 0.155631 0.056314 0.319452 0.051194 0.48225 0.096245 0.328667 0.064505 0.655287 0.148463 0.994193 0.153583 0.014334 0 0.028669 0.005119 0.028668 0.005119 0.318428 0.002048 0.619451-0.067576 0.930712-0.132081 0.162798-0.029693 0.332763-0.014334 0.494537-0.0686 0.475083-0.143344 0.931736-0.351193 1.355624-0.641976l44.656758-30.361272 44.290208 30.896764a4.853216 4.853216 0 0 0 2.759371 0.874398c1.011599 0.006143 2.027293-0.296927 2.8935-0.924568a4.888029 4.888029 0 0 0 1.816372-5.352873l-15.369542-51.323276 43.322636-32.092661a4.884957 4.884957 0 0 0 1.7447-5.388709 4.883933 4.883933 0 0 0-4.531716-3.409538zM778.142608 238.779273c0 12.877406-10.769226 23.315917-24.055162 23.315916H274.78932c-13.284912 0-24.055162-10.438511-24.055162-23.315916 0-12.877406 10.769226-23.315917 24.055162-23.315917h479.298126c13.284912 0 24.055162 10.438511 24.055162 23.315917zM778.142608 370.691539c0 12.877406-10.769226 23.315917-24.055162 23.315916H274.78932c-13.284912 0-24.055162-10.438511-24.055162-23.315916 0-12.877406 10.769226-23.315917 24.055162-23.315917h479.298126c13.284912 0 24.055162 10.438511 24.055162 23.315917z" fill="#4E6DC4" /></svg>