<?xml version="1.0" ?>
<!-- Uploaded to: SVG Repo, www.svgrepo.com, Generator: SVG Repo Mixer Tools -->
<svg fill="#000000" width="800px" height="800px" viewBox="0 0 100 100" version="1.1" xml:space="preserve" xmlns="http://www.w3.org/2000/svg" xmlns:xlink="http://www.w3.org/1999/xlink">
<g id="network"/>
<g id="connection"/>
<g id="page"/>
<g id="support"/>
<g id="configuration"/>
<g id="cloud_storage"/>
<g id="password"/>
<g id="search_engine"/>
<g id="history"/>
<g id="SEO"/>
<g id="optimization"/>
<g id="backlink"/>
<g id="performance"/>
<g id="analytics"/>
<g id="security"/>
<g id="dark_web">
<g>
<path d="M54.2,38.4c0.1,0.3,0.3,0.5,0.6,0.6c0.1,0,0.2,0,0.3,0c0.2,0,0.4,0,0.5-0.1l0.7-0.4C55.5,39.2,55,40,55,41    c0,2.2,2.6,4,6,4s6-1.8,6-4s-2.6-4-6-4c-1.2,0-2.3,0.2-3.2,0.6l9.7-5.8c0.4-0.2,0.6-0.7,0.4-1.2c-0.2-0.5-0.6-0.7-1.1-0.7l-14,2    c-0.3,0-0.6,0.2-0.7,0.5s-0.2,0.6,0,0.9L54.2,38.4z M65,41c0,0.9-1.7,2-4,2s-4-1.1-4-2s1.7-2,4-2S65,40.1,65,41z M62.2,32.7    l-6.5,3.9l-1.2-2.8L62.2,32.7z"/>
<path d="M32.5,31.9l9.7,5.8c-0.9-0.4-2-0.6-3.2-0.6c-3.4,0-6,1.8-6,4s2.6,4,6,4s6-1.8,6-4c0-1-0.5-1.8-1.3-2.5l0.7,0.4    c0.2,0.1,0.3,0.1,0.5,0.1c0.1,0,0.2,0,0.3,0c0.3-0.1,0.5-0.3,0.6-0.6l2.2-5c0.1-0.3,0.1-0.6,0-0.9s-0.4-0.5-0.7-0.5l-14-2    c-0.5-0.1-0.9,0.2-1.1,0.7C31.9,31.1,32.1,31.6,32.5,31.9z M39,43c-2.3,0-4-1.1-4-2s1.7-2,4-2s4,1.1,4,2S41.3,43,39,43z     M45.6,33.8l-1.2,2.8l-6.5-3.9L45.6,33.8z"/>
<path d="M43.8,52.9C43.7,53,43.6,53,43.5,53h-3.6c-0.1,0-0.3-0.1-0.3-0.2l-3.1-4.7c-0.4-0.7-1.2-1.1-2-1.1c-0.8,0-1.6,0.4-2,1.1    c-0.5,0.7-0.5,1.6-0.2,2.3l3.6,8.1c0.4,0.9,1.3,1.4,2.2,1.4h4.1c0.3,0.7,1,1.6,2.6,2.2C46.2,62.7,48,63,50,63c3.2,0,7-0.8,7.8-3    h4.1c0.9,0,1.8-0.6,2.2-1.4l3.6-8.1c0.3-0.8,0.3-1.6-0.2-2.3c-0.4-0.7-1.2-1.1-2-1.1c-0.8,0-1.6,0.4-2,1.1l-3.1,4.7    c-0.1,0.1-0.2,0.2-0.3,0.2h-3.6c-0.1,0-0.2,0-0.3-0.1l-3.1-3.2C52.7,49.3,52,49,51.4,49h-2.8c-0.6,0-1.3,0.3-1.7,0.7L43.8,52.9z     M50,61c-2.3,0-4.1-0.4-5.1-1h0.7c0.5,0,1-0.2,1.5-0.5l2.7-2.1c0.1-0.1,0.3-0.1,0.5,0l2.7,2.1c0.4,0.3,0.9,0.5,1.5,0.5h0.7    C54.1,60.6,52.3,61,50,61z M48.6,51h2.8c0.1,0,0.2,0,0.3,0.1l3.1,3.2c0.5,0.5,1.1,0.7,1.7,0.7h3.6c0.8,0,1.6-0.4,2-1.1l3.1-4.7    c0.1-0.1,0.2-0.2,0.3-0.2c0.2,0,0.3,0.1,0.3,0.2c0,0.1,0.1,0.2,0,0.4l-3.6,8.1c-0.1,0.2-0.2,0.3-0.4,0.3h-7.5    c-0.1,0-0.2,0-0.2-0.1l-2.7-2.1c-0.4-0.3-0.9-0.5-1.5-0.5s-1,0.2-1.5,0.5l-2.7,2.1C45.8,58,45.7,58,45.6,58h-7.5    c-0.2,0-0.3-0.1-0.4-0.3L34,49.6c-0.1-0.2,0-0.4,0-0.4c0-0.1,0.2-0.2,0.3-0.2c0.1,0,0.3,0.1,0.3,0.2l3.1,4.7    c0.4,0.7,1.2,1.1,2,1.1h3.6c0.6,0,1.3-0.3,1.7-0.7l3.1-3.2C48.4,51,48.5,51,48.6,51z"/>
<path d="M85.3,79.5C92,71.5,96,61.2,96,50c0-11.2-4-21.5-10.7-29.5c-0.1-0.1-0.1-0.2-0.2-0.3c0,0,0,0,0,0C76.6,10.3,64,4,50,4    c-14,0-26.6,6.3-35,16.2c0,0,0,0,0,0c-0.1,0.1-0.2,0.2-0.2,0.3C8,28.5,4,38.8,4,50c0,11.2,4,21.5,10.7,29.5    c0.1,0.1,0.1,0.2,0.2,0.3c0,0,0,0,0,0C23.4,89.7,36,96,50,96s26.6-6.3,35-16.2c0,0,0,0,0,0C85.2,79.7,85.2,79.6,85.3,79.5z     M72.2,67.7c1.1-5.2,1.8-10.8,1.8-16.7h20c-0.2,10-3.8,19.2-9.6,26.4C80.9,73.5,76.7,70.2,72.2,67.7z M15.6,77.4    C9.8,70.2,6.2,61,6,51h20c0.1,5.9,0.7,11.5,1.8,16.7C23.3,70.2,19.1,73.5,15.6,77.4z M15.6,22.6c3,3.4,6.5,6.3,10.4,8.7v16.6    c0,0.3,0,0.6,0,0.8c0,0,0,0,0,0c0,0,0,0.1,0,0.2c0,0,0,0,0,0.1H6C6.2,39,9.8,29.9,15.6,22.6z M51,6.1c6.6,0.6,12.7,7.2,16.7,17.9    H51V6.1z M49,24H32.3C36.3,13.2,42.4,6.7,49,6.1V24z M72,26v21.9c0,11-6.5,20.8-16.6,25.1c-0.2,0.1-0.4,0.1-0.6,0.2L53,65.8    c-0.1-0.4-0.5-0.8-1-0.8h-2h-2c-0.5,0-0.9,0.3-1,0.8l-1.8,7.4c-0.2-0.1-0.4-0.1-0.6-0.2C34.5,68.7,28,58.9,28,47.9V26H72z M94,49    H74c0,0,0,0,0-0.1c0-0.1,0-0.2,0-0.2c0,0,0,0,0,0c0-0.3,0-0.5,0-0.8V31.2c3.9-2.4,7.3-5.3,10.4-8.7C90.2,29.9,93.8,39,94,49z     M47.1,73.7l1.7-6.7H50h1.2l1.7,6.7C51,74.1,49,74.1,47.1,73.7z M28.6,59.8c0.9,2.1,2.1,4,3.5,5.8c-0.8,0.3-1.6,0.7-2.4,1.1    C29.2,64.5,28.8,62.2,28.6,59.8z M33.4,67.3c2.8,3.2,6.4,5.8,10.5,7.5c1.6,0.7,3.4,1.1,5.2,1.2v18c-8.3-0.8-15.5-10.8-18.9-25.2    C31.2,68.2,32.3,67.7,33.4,67.3z M51,75.9c1.8-0.1,3.5-0.5,5.2-1.2c4.1-1.7,7.7-4.3,10.5-7.5c1.1,0.5,2.2,1,3.3,1.5    C66.5,83.1,59.3,93.2,51,93.9V75.9z M68,65.7c1.4-1.8,2.5-3.8,3.5-5.8c-0.3,2.4-0.6,4.7-1.1,6.9C69.6,66.4,68.8,66,68,65.7z     M83.1,21c-2.7,3-5.7,5.7-9.1,7.9V25c0-0.6-0.4-1-1-1h-3.2C67,16,62.9,10,58.3,6.8C68.1,8.7,76.7,13.8,83.1,21z M41.7,6.8    C37.1,10,33,16,30.2,24H27c-0.6,0-1,0.4-1,1v3.9c-3.4-2.2-6.4-4.8-9.1-7.9C23.3,13.8,31.9,8.7,41.7,6.8z M16.9,79    c3.3-3.7,7.1-6.8,11.4-9.3c2.7,10.8,7.5,19.3,13.5,23.5C32,91.4,23.3,86.2,16.9,79z M58.2,93.2c5.9-4.2,10.8-12.7,13.5-23.5    c4.3,2.4,8.1,5.6,11.4,9.3C76.7,86.2,68,91.4,58.2,93.2z"/>
</g>
</g>
<g id="video_player"/>
<g id="upload_download"/>
<g id="incognito_tab"/>
<g id="bookmark"/>
</svg>